<?xml version="1.0" encoding="UTF-8"?>
<svg id="_레이어_1" data-name="레이어_1" xmlns="http://www.w3.org/2000/svg" xmlns:xlink="http://www.w3.org/1999/xlink" version="1.1" viewBox="0 0 145.5 133.9">
  <!-- Generator: Adobe Illustrator 30.5.1, SVG Export Plug-In . SVG Version: 2.1.4 Build 3)  -->
  <defs>
    <style>
      .st0 {
        fill: none;
      }

      .st1 {
        mask: url(#mask);
      }

      .st2 {
        fill: #b2c159;
      }

      .st2, .st3 {
        display: none;
      }

      .st4 {
        fill: #fc97b2;
      }

      .st5 {
        fill: #fff;
      }

      .st6 {
        fill: #e84d88;
      }

      .st7 {
        fill: #ffce31;
      }

      .st8 {
        fill: #ed4c5c;
      }

      .st9 {
        fill: #d6eef0;
      }

      .st10 {
        fill: #ffc7ce;
      }
    </style>
    <mask id="mask" x="0" y="0" width="116.2" height="90.7" maskUnits="userSpaceOnUse">
      <g id="a">
        <path d="M66.3,74.2c-.7.8-2,.4-2-.7v-10.3c0-1.2-1-2.3-2.3-2.3,0,0,0,0,0,0h-11.4c-.9,0-1.5-1-.9-1.8l7.5-10.5c1.1-1.5,0-3.6-1.8-3.6h-13.8c-.9,0-1.5-1-.9-1.8l9.7-13.6c.2-.3.6-.5.9-.5h28.9c.9,0,1.5,1,.9,1.8l-7.5,10.5c-1.1,1.5,0,3.6,1.8,3.6h11.4c.9,0,1.5,1.1.9,1.8l-21.4,27.3h0Z"/>
      </g>
    </mask>
  </defs>
  <path class="st2" d="M85.3,116.4c-1.5,1.9-4.4.8-4.4-1.5v-22.6c0-2.7-2.2-5-5-5,0,0,0,0,0,0h-25c-2,0-3.2-2.3-2-3.9l16.4-23c2.3-3.3,0-7.8-4-7.8h-30.2c-2,0-3.2-2.3-2-3.9l21.3-29.8c.5-.7,1.2-1,2-1h63.4c2,0,3.2,2.3,2,3.9l-16.4,23c-2.3,3.3,0,7.9,4,7.9h25c2.1,0,3.2,2.4,2,4l-47,59.8h0Z"/>
  <g class="st1">
    <g class="st3">
      <ellipse class="st0" cx="50.7" cy="66.2" rx="14.7" ry="5.5" transform="translate(-.2 .2)"/>
      <ellipse class="st0" cx="31" cy="47.4" rx="29.9" ry="10.4" transform="translate(-.2 .1)"/>
      <ellipse class="st0" cx="30.5" cy="46" rx="30.5" ry="5.5" transform="translate(-.1 0)"/>
      <ellipse class="st0" cx="35.2" cy="64" rx="30.6" ry="5.5" transform="translate(-.2 .1)"/>
      <ellipse class="st0" cx="36.7" cy="65.1" rx="30.6" ry="5.5" transform="translate(-.2 .1)"/>
      <ellipse class="st0" cx="93.6" cy="40.7" rx="14.1" ry="22.1" transform="translate(47.4 131.8) rotate(-86.7)"/>
      <ellipse class="st0" cx="94.7" cy="44.2" rx="21.5" ry="3.5" transform="translate(-.8 1.6) rotate(-1)"/>
      <ellipse class="st0" cx="94.7" cy="44.2" rx="21.5" ry="3.5" transform="translate(-.8 1.6) rotate(-1)"/>
      <ellipse class="st0" cx="40.8" cy="38.2" rx="29.1" ry="4.4" transform="translate(-14.6 45.4) rotate(-50.5)"/>
      <ellipse class="st0" cx="88" cy="23.1" rx="29.1" ry="4.4" transform="translate(15.7 78.4) rotate(-52.1)"/>
      <ellipse class="st0" cx="81.9" cy="35.6" rx="9.7" ry="6" transform="translate(3.5 78.3) rotate(-52.1)"/>
      <ellipse class="st0" cx="38.6" cy="67.6" rx="29.1" ry="4.4" transform="translate(-38.4 56.5) rotate(-52.1)"/>
      <ellipse class="st0" cx="38.6" cy="67.6" rx="29.1" ry="4.4" transform="translate(-38.4 56.5) rotate(-52.1)"/>
      <ellipse class="st0" cx="76.1" cy="59.1" rx="29.1" ry="4.4" transform="translate(-17.3 82.9) rotate(-52.1)"/>
      <ellipse class="st0" cx="78.9" cy="61.6" rx="15.3" ry="6" transform="translate(-18.2 86) rotate(-52.1)"/>
    </g>
  </g>
  <g>
    <path class="st6" d="M143.7,130.4H35c-1,0-1.8.8-1.8,1.8s.8,1.8,1.8,1.8h108.7c1,0,1.8-.8,1.8-1.8s-.8-1.8-1.8-1.8Z"/>
    <polygon class="st4" points="138.5 130.4 40.3 130.4 40.3 98.8 89.4 77.8 138.5 98.8 138.5 130.4"/>
    <path class="st8" d="M70.7,81.6l-35.4,14.5c-1.7.7-2.5,2.6-1.8,4.3.7,1.7,2.7,2.5,4.4,1.8l35.4-14.5c1.7-.7,2.5-2.6,1.8-4.3-.7-1.7-2.7-2.5-4.4-1.8Z"/>
    <path class="st8" d="M108,81.6l35.4,14.5c1.7.7,2.5,2.6,1.8,4.3-.7,1.7-2.7,2.5-4.4,1.8l-35.4-14.5c-1.7-.7-2.5-2.6-1.8-4.3.7-1.7,2.7-2.5,4.4-1.8Z"/>
    <polygon class="st10" points="110.4 130.4 68.3 130.4 68.3 67.3 89.4 58.5 110.4 67.3 110.4 130.4"/>
    <polygon class="st7" points="101.1 30.5 92.3 30.5 92.3 21.7 86.5 21.7 86.5 30.5 77.7 30.5 77.7 36.3 86.5 36.3 86.5 56.8 92.3 56.8 92.3 36.3 101.1 36.3 101.1 30.5"/>
    <rect class="st10" x="68.3" y="132.2" width="42.1" height="1.8"/>
    <rect class="st4" x="68.3" y="130.4" width="42.1" height="1.8"/>
    <path class="st8" d="M117.1,66.3l-27.8-11.3-27.8,11.3c-1.7.7-2.5,2.6-1.8,4.3.7,1.7,2.7,2.5,4.4,1.8l25.2-10.2,25.2,10.2c1.7.7,3.7-.1,4.4-1.8.7-1.7-.1-3.6-1.8-4.3Z"/>
    <path class="st5" d="M87.1,74c-.1-1-1.1-1.6-2-1.4,0,0-.2,0-1.2.5-1,.4-1.2.5-1.2.5-.9.5-1.1,1.6-.5,2.4l5.5,7.4c.6.8,1,.7.8-.3l-1.4-9.1Z"/>
    <path class="st5" d="M78.8,79.3c-.8-.6-1.9-.4-2.3.5l-1,2.4c-.3,1,.3,1.9,1.3,2l9.1,1.4c1,.1,1.1-.2.3-.8l-7.4-5.5Z"/>
    <path class="st5" d="M76.8,88.9c-1,.1-1.6,1.1-1.4,2,0,0,0,.2.5,1.2.4,1,.5,1.2.5,1.2.5.9,1.6,1.1,2.4.5l7.4-5.5c.8-.6.7-1-.3-.8l-9.1,1.4Z"/>
    <path class="st5" d="M82.1,97.1c-.6.8-.4,1.9.5,2.3l2.4,1c1,.3,1.9-.3,2-1.3l1.4-9.1c.1-1-.2-1.1-.8-.3l-5.5,7.4Z"/>
    <path class="st5" d="M91.7,99.2c.1,1,1.1,1.6,2,1.4,0,0,.2,0,1.2-.5,1-.4,1.2-.5,1.2-.5.9-.5,1.1-1.6.5-2.4l-5.5-7.4c-.6-.8-1-.7-.8.3l1.4,9.1Z"/>
    <path class="st5" d="M99.9,93.8c.8.6,1.9.4,2.3-.5l1-2.4c.3-1-.3-1.9-1.3-2l-9.1-1.4c-1-.1-1.1.2-.3.8l7.4,5.5Z"/>
    <path class="st5" d="M102,84.2c1-.1,1.6-1.1,1.4-2,0,0,0-.2-.5-1.2-.4-1-.5-1.2-.5-1.2-.5-.9-1.6-1.1-2.4-.5l-7.4,5.5c-.8.6-.7,1,.3.8l9.1-1.4Z"/>
    <path class="st5" d="M96.6,76c.6-.8.4-1.9-.5-2.3l-2.4-1c-1-.3-1.9.3-2,1.3l-1.4,9.1c-.2,1,.2,1.1.8.3l5.5-7.4Z"/>
    <path class="st4" d="M89.4,104.1c-5.8,0-10.5,4.7-10.5,10.5v15.8h21v-15.8c0-5.8-4.7-10.5-10.5-10.5Z"/>
    <path class="st9" d="M82.4,119.9h14v-5.3c0-3.9-3.1-7-7-7s-7,3.1-7,7v5.3Z"/>
    <path class="st6" d="M52.9,108.5c0-.6-.7-1-1.3-.9,0,0-.1,0-.8.3-.6.3-.7.3-.7.3-.5.3-.7,1-.3,1.5l3.4,4.6c.4.5.6.4.5-.2l-.8-5.7Z"/>
    <path class="st6" d="M47.7,111.8c-.5-.4-1.2-.2-1.5.3l-.6,1.5c-.2.6.2,1.2.8,1.3l5.7.8c.6,0,.7-.1.2-.5l-4.6-3.4Z"/>
    <path class="st6" d="M46.4,117.8c-.6,0-1,.7-.9,1.3,0,0,0,.1.3.8.3.6.3.8.3.8.3.5,1,.7,1.5.3l4.6-3.4c.5-.4.4-.6-.2-.5l-5.7.8Z"/>
    <path class="st6" d="M49.8,123c-.4.5-.2,1.2.3,1.5l1.5.6c.6.2,1.2-.2,1.3-.8l.8-5.7c0-.6-.1-.7-.5-.2l-3.4,4.6Z"/>
    <path class="st6" d="M55.8,124.2c0,.6.7,1,1.3.9,0,0,.1,0,.8-.3.6-.3.8-.3.8-.3.5-.3.7-1,.3-1.5l-3.4-4.6c-.4-.5-.6-.4-.5.2l.8,5.7Z"/>
    <path class="st6" d="M60.9,120.9c.5.4,1.2.2,1.5-.3l.6-1.5c.2-.6-.2-1.2-.8-1.3l-5.7-.8c-.6,0-.7.1-.2.5l4.6,3.4Z"/>
    <path class="st6" d="M62.2,114.9c.6,0,1-.7.9-1.3,0,0,0-.1-.3-.8-.3-.6-.3-.7-.3-.7-.3-.5-1-.7-1.5-.3l-4.6,3.4c-.5.4-.4.6.2.5l5.7-.8Z"/>
    <path class="st6" d="M58.8,109.8c.4-.5.2-1.2-.3-1.5l-1.5-.6c-.6-.2-1.2.2-1.3.8l-.8,5.7c0,.6.1.7.5.2l3.4-4.6Z"/>
    <path class="st6" d="M123,108.5c0-.6-.7-1-1.3-.9,0,0-.1,0-.8.3-.6.3-.7.3-.7.3-.5.3-.7,1-.3,1.5l3.4,4.6c.4.5.6.4.5-.2l-.8-5.7Z"/>
    <path class="st6" d="M117.9,111.8c-.5-.4-1.2-.2-1.5.3l-.6,1.5c-.2.6.2,1.2.8,1.3l5.7.8c.6,0,.7-.1.2-.5l-4.6-3.4Z"/>
    <path class="st6" d="M116.6,117.8c-.6,0-1,.7-.9,1.3,0,0,0,.1.3.8.3.6.3.8.3.8.3.5,1,.7,1.5.3l4.6-3.4c.5-.4.4-.6-.2-.5l-5.7.8Z"/>
    <path class="st6" d="M119.9,123c-.4.5-.2,1.2.3,1.5l1.5.6c.6.2,1.2-.2,1.3-.8l.8-5.7c0-.6-.1-.7-.5-.2l-3.4,4.6Z"/>
    <path class="st6" d="M125.9,124.2c0,.6.7,1,1.3.9,0,0,.1,0,.8-.3.6-.3.8-.3.8-.3.5-.3.7-1,.3-1.5l-3.4-4.6c-.4-.5-.6-.4-.5.2l.8,5.7Z"/>
    <path class="st6" d="M131,120.9c.5.4,1.2.2,1.5-.3l.6-1.5c.2-.6-.2-1.2-.8-1.3l-5.7-.8c-.6,0-.7.1-.2.5l4.6,3.4Z"/>
    <path class="st6" d="M132.3,114.9c.6,0,1-.7.9-1.3,0,0,0-.1-.3-.8-.3-.6-.3-.7-.3-.7-.3-.5-1-.7-1.5-.3l-4.6,3.4c-.5.4-.4.6.2.5l5.7-.8Z"/>
    <path class="st6" d="M129,109.8c.4-.5.2-1.2-.3-1.5l-1.5-.6c-.6-.2-1.2.2-1.3.8l-.8,5.7c0,.6.1.7.5.2l3.4-4.6Z"/>
    <rect class="st4" x="87.6" y="105.9" width="3.5" height="24.5"/>
    <rect class="st4" x="78.9" y="118.1" width="21" height="12.3"/>
    <rect class="st6" x="82.4" y="122.2" width="5.3" height="5.3"/>
    <rect class="st6" x="91.1" y="122.2" width="5.3" height="5.3"/>
    <path class="st4" d="M137.2,41c-3.3,0-6.1,1.8-7.5,4.5-1.3-2.7-4.2-4.5-7.5-4.5s-8.3,3.5-8.3,7.9c0,7.9,16.6,23.7,16.6,23.7,0,0,15-15.8,15-23.7s-3.7-7.9-8.3-7.9Z"/>
    <path class="st4" d="M56.5,41c-3.3,0-6.1,1.8-7.5,4.5-1.3-2.7-4.2-4.5-7.5-4.5s-8.3,3.5-8.3,7.9c0,7.9,16.6,23.7,16.6,23.7,0,0,15-15.8,15-23.7s-3.7-7.9-8.3-7.9Z"/>
  </g>
</svg>